<svg width="1438" height="300" viewBox="0 0 1438 300" fill="none" xmlns="http://www.w3.org/2000/svg">
<path d="M0.40918 296.747V0.306503H121.103C186.32 0.306503 229.939 38.844 229.939 98.979C229.939 137.093 210.035 167.584 179.121 182.406L237.562 296.747H167.263L117.292 197.228H63.9323V296.747H0.40918ZM116.021 53.242H63.9323V144.292H116.021C146.089 144.292 165.146 126.506 165.146 98.979C165.146 71.029 146.089 53.242 116.021 53.242ZM363.86 299.288C291.444 299.288 247.825 255.669 247.825 188.335C247.825 120.577 292.291 76.534 359.625 76.534C424.842 76.534 468.885 117.189 469.732 181.135C469.732 187.488 469.308 194.687 468.038 201.463H310.077V204.427C311.348 235.342 331.252 253.975 361.319 253.975C385.458 253.975 402.398 243.388 407.479 223.061H466.344C459.568 265.409 421.878 299.288 363.86 299.288ZM311.348 162.502H409.597C405.362 135.822 387.152 121 360.049 121C334.216 121 314.736 136.669 311.348 162.502ZM490.546 224.331H547.293C549.41 243.388 565.926 256.516 595.147 256.516C620.133 256.516 635.378 248.47 635.378 233.224C635.378 215.438 620.556 214.167 585.407 209.509C534.588 203.58 495.204 192.146 495.204 147.256C495.204 104.061 532.894 75.687 588.795 76.111C647.236 76.111 687.467 101.943 690.431 146.409H633.261C631.567 129.046 615.051 118.459 590.912 118.459C567.62 118.459 552.375 126.929 552.375 140.904C552.375 157.42 571.008 159.114 602.346 162.925C652.318 168.007 693.819 179.441 693.819 228.566C693.819 271.762 653.165 299.288 594.723 299.288C534.165 299.288 493.087 270.915 490.546 224.331ZM832.839 299.288C760.423 299.288 716.803 255.669 716.803 188.335C716.803 120.577 761.27 76.534 828.604 76.534C893.821 76.534 937.864 117.189 938.711 181.135C938.711 187.488 938.287 194.687 937.017 201.463H779.056V204.427C780.326 235.342 800.23 253.975 830.298 253.975C854.437 253.975 871.376 243.388 876.458 223.061H935.323C928.547 265.409 890.857 299.288 832.839 299.288ZM780.326 162.502H878.575C874.341 135.822 856.131 121 829.027 121C803.195 121 783.714 136.669 780.326 162.502ZM1096.27 76.534C1143.28 76.534 1183.51 101.52 1183.51 176.054V296.747H1123.8V181.982C1123.8 145.139 1109.82 125.659 1079.75 125.659C1048.84 125.659 1031.05 147.68 1031.05 185.37V296.747H971.342V79.075H1023.43L1028.94 106.178C1042.91 89.239 1062.82 76.534 1096.27 76.534ZM1378.27 106.178V0.306503H1437.98V296.747H1385.89L1379.96 266.68C1365.56 285.313 1344.39 299.288 1313.05 299.288C1254.61 299.288 1211.84 256.516 1211.84 187.488C1211.84 120.153 1254.61 76.534 1312.63 76.534C1342.69 76.534 1364.29 88.392 1378.27 106.178ZM1326.18 250.587C1358.79 250.587 1379.11 225.178 1379.11 188.335C1379.11 151.068 1358.79 125.235 1326.18 125.235C1293.57 125.235 1272.82 150.644 1272.82 187.911C1272.82 225.178 1293.57 250.587 1326.18 250.587Z" fill="white"/>
</svg>
